<svg xmlns="http://www.w3.org/2000/svg" width="159" height="64" viewBox="0 0 159 64" role="img" aria-label="AIR by VM4AI (black)"><title>AIR by VM4AI (black)</title><rect x="9.5" y="9.5" width="45" height="45" rx="13" fill="none" stroke="#1A1613" stroke-width="5"/><circle cx="32" cy="32" r="8.5" fill="#1A1613"/><g transform="translate(86.000,38.000) scale(0.04000,-0.04000)" fill="#1A1613"><path d="M18 0 202 700H432L616 0H480L442 154H192L154 0ZM223 276H411L326 617H308ZM725.0 0V700H857.0V0ZM1014.0 0V700H1318.0Q1384.0 700 1433.0 677.0Q1482.0 654 1509.0 612.0Q1536.0 570 1536.0 513V501Q1536.0 438 1506.0 399.0Q1476.0 360 1432.0 342V324Q1472.0 322 1494.0 296.5Q1516.0 271 1516.0 229V0H1384.0V210Q1384.0 234 1371.5 249.0Q1359.0 264 1330.0 264H1146.0V0ZM1146.0 384H1304.0Q1351.0 384 1377.5 409.5Q1404.0 435 1404.0 477V487Q1404.0 529 1378.0 554.5Q1352.0 580 1304.0 580H1146.0Z"/></g><g transform="translate(85.708,54.000) scale(0.01100,-0.01100)" fill="#1A1613"><path d="M332 -10Q264 -10 223.0 26.5Q182 63 182 126L200 105H182V0H92V730H182V570L180 445H200L182 424Q182 486 223.5 523.0Q265 560 332 560Q415 560 465.0 505.0Q515 450 515 355V194Q515 100 465.0 45.0Q415 -10 332 -10ZM302 68Q359 68 392.0 102.0Q425 136 425 200V350Q425 414 392.0 448.0Q359 482 302 482Q247 482 214.5 447.0Q182 412 182 350V200Q182 138 214.5 103.0Q247 68 302 68ZM909.0 -180 990.0 34 786.0 550H886.0L1014.0 210Q1021.0 193 1027.0 169.5Q1033.0 146 1037.0 130Q1041.0 146 1047.0 169.5Q1053.0 193 1059.0 210L1179.0 550H1276.0L1005.0 -180ZM2431.0 0 2243.0 730H2336.0L2460.0 234Q2473.0 182 2482.0 137.5Q2491.0 93 2495.0 70Q2499.0 93 2507.5 137.5Q2516.0 182 2529.0 234L2652.0 730H2743.0L2554.0 0ZM3000.0 0V730H3118.0L3194.0 494Q3205.0 462 3214.0 430.5Q3223.0 399 3227.0 382Q3232.0 399 3240.0 430.5Q3248.0 462 3258.0 495L3330.0 730H3448.0V0H3360.0V265Q3360.0 309 3363.0 365.0Q3366.0 421 3371.0 479.5Q3376.0 538 3381.5 591.5Q3387.0 645 3391.0 685L3273.0 320H3178.0L3059.0 685Q3064.0 646 3069.0 594.5Q3074.0 543 3078.0 485.5Q3082.0 428 3085.0 371.0Q3088.0 314 3088.0 265V0ZM4065.0 0V160H3735.0V301L4024.0 730H4122.0L3825.0 282V242H4065.0V420H4155.0V0ZM4436.0 0 4626.0 730H4747.0L4936.0 0H4845.0L4797.0 194H4576.0L4528.0 0ZM4594.0 270H4778.0L4722.0 495Q4706.0 559 4697.0 602.0Q4688.0 645 4686.0 658Q4684.0 645 4675.0 602.0Q4666.0 559 4650.0 496ZM5222.0 0V82H5371.0V648H5222.0V730H5612.0V648H5463.0V82H5612.0V0Z"/></g></svg>
