<svg xmlns="http://www.w3.org/2000/svg" width="74" height="64" viewBox="0 0 74 64" role="img" aria-label="AIR by VM4AI wordmark (on dark)"><title>AIR by VM4AI wordmark (on dark)</title><g transform="translate(2.000,40.000) scale(0.04200,-0.04200)" fill="#ECE4D8"><path d="M18 0 202 700H432L616 0H480L442 154H192L154 0ZM223 276H411L326 617H308ZM723.8095238095239 0V700H855.8095238095239V0ZM1011.6190476190477 0V700H1315.6190476190477Q1381.6190476190477 700 1430.6190476190477 677.0Q1479.6190476190477 654 1506.6190476190477 612.0Q1533.6190476190477 570 1533.6190476190477 513V501Q1533.6190476190477 438 1503.6190476190477 399.0Q1473.6190476190477 360 1429.6190476190477 342V324Q1469.6190476190477 322 1491.6190476190477 296.5Q1513.6190476190477 271 1513.6190476190477 229V0H1381.6190476190477V210Q1381.6190476190477 234 1369.1190476190477 249.0Q1356.6190476190477 264 1327.6190476190477 264H1143.6190476190477V0ZM1143.6190476190477 384H1301.6190476190477Q1348.6190476190477 384 1375.1190476190477 409.5Q1401.6190476190477 435 1401.6190476190477 477V487Q1401.6190476190477 529 1375.6190476190477 554.5Q1349.6190476190477 580 1301.6190476190477 580H1143.6190476190477Z"/></g><g transform="translate(1.744,56.000) scale(0.01100,-0.01100)" fill="#9A8F80"><path d="M332 -10Q264 -10 223.0 26.5Q182 63 182 126L200 105H182V0H92V730H182V570L180 445H200L182 424Q182 486 223.5 523.0Q265 560 332 560Q415 560 465.0 505.0Q515 450 515 355V194Q515 100 465.0 45.0Q415 -10 332 -10ZM302 68Q359 68 392.0 102.0Q425 136 425 200V350Q425 414 392.0 448.0Q359 482 302 482Q247 482 214.5 447.0Q182 412 182 350V200Q182 138 214.5 103.0Q247 68 302 68ZM947.1298701298703 -180 1028.1298701298701 34 824.1298701298703 550H924.1298701298703L1052.1298701298701 210Q1059.1298701298701 193 1065.1298701298701 169.5Q1071.1298701298701 146 1075.1298701298701 130Q1079.1298701298701 146 1085.1298701298701 169.5Q1091.1298701298701 193 1097.1298701298701 210L1217.1298701298701 550H1314.1298701298701L1043.1298701298701 -180ZM2545.3896103896104 0 2357.3896103896104 730H2450.3896103896104L2574.3896103896104 234Q2587.3896103896104 182 2596.3896103896104 137.5Q2605.3896103896104 93 2609.3896103896104 70Q2613.3896103896104 93 2621.8896103896104 137.5Q2630.3896103896104 182 2643.3896103896104 234L2766.3896103896104 730H2857.3896103896104L2668.3896103896104 0ZM3152.5194805194806 0V730H3270.5194805194806L3346.5194805194806 494Q3357.5194805194806 462 3366.5194805194806 430.5Q3375.5194805194806 399 3379.5194805194806 382Q3384.5194805194806 399 3392.5194805194806 430.5Q3400.5194805194806 462 3410.5194805194806 495L3482.5194805194806 730H3600.5194805194806V0H3512.5194805194806V265Q3512.5194805194806 309 3515.5194805194806 365.0Q3518.5194805194806 421 3523.5194805194806 479.5Q3528.5194805194806 538 3534.0194805194806 591.5Q3539.5194805194806 645 3543.5194805194806 685L3425.5194805194806 320H3330.5194805194806L3211.5194805194806 685Q3216.5194805194806 646 3221.5194805194806 594.5Q3226.5194805194806 543 3230.5194805194806 485.5Q3234.5194805194806 428 3237.5194805194806 371.0Q3240.5194805194806 314 3240.5194805194806 265V0ZM4255.649350649351 0V160H3925.6493506493507V301L4214.649350649351 730H4312.649350649351L4015.6493506493507 282V242H4255.649350649351V420H4345.649350649351V0ZM4664.779220779221 0 4854.779220779221 730H4975.779220779221L5164.779220779221 0H5073.779220779221L5025.779220779221 194H4804.779220779221L4756.779220779221 0ZM4822.779220779221 270H5006.779220779221L4950.779220779221 495Q4934.779220779221 559 4925.779220779221 602.0Q4916.779220779221 645 4914.779220779221 658Q4912.779220779221 645 4903.779220779221 602.0Q4894.779220779221 559 4878.779220779221 496ZM5488.909090909091 0V82H5637.909090909091V648H5488.909090909091V730H5878.909090909091V648H5729.909090909091V82H5878.909090909091V0Z"/></g></svg>
