<svg xmlns="http://www.w3.org/2000/svg" width="140" height="122" viewBox="0 0 140 122" role="img" aria-label="AIR by VM4AI stacked (on light)"><title>AIR by VM4AI stacked (on light)</title><g transform="translate(38.00,4)"><rect x="9.5" y="9.5" width="45" height="45" rx="13" fill="none" stroke="#C9A227" stroke-width="5"/><circle cx="32" cy="32" r="8.5" fill="#FF5A1F"/></g><g transform="translate(41.928,100.000) scale(0.03600,-0.03600)" fill="#1A1613"><path d="M18 0 202 700H432L616 0H480L442 154H192L154 0ZM223 276H411L326 617H308ZM727.7777777777778 0V700H859.7777777777778V0ZM1019.5555555555557 0V700H1323.5555555555557Q1389.5555555555557 700 1438.5555555555557 677.0Q1487.5555555555557 654 1514.5555555555557 612.0Q1541.5555555555557 570 1541.5555555555557 513V501Q1541.5555555555557 438 1511.5555555555557 399.0Q1481.5555555555557 360 1437.5555555555557 342V324Q1477.5555555555557 322 1499.5555555555557 296.5Q1521.5555555555557 271 1521.5555555555557 229V0H1389.5555555555557V210Q1389.5555555555557 234 1377.0555555555557 249.0Q1364.5555555555557 264 1335.5555555555557 264H1151.5555555555557V0ZM1151.5555555555557 384H1309.5555555555557Q1356.5555555555557 384 1383.0555555555557 409.5Q1409.5555555555557 435 1409.5555555555557 477V487Q1409.5555555555557 529 1383.5555555555557 554.5Q1357.5555555555557 580 1309.5555555555557 580H1151.5555555555557Z"/></g><g transform="translate(41.564,115.000) scale(0.01100,-0.01100)" fill="#6E665C"><path d="M332 -10Q264 -10 223.0 26.5Q182 63 182 126L200 105H182V0H92V730H182V570L180 445H200L182 424Q182 486 223.5 523.0Q265 560 332 560Q415 560 465.0 505.0Q515 450 515 355V194Q515 100 465.0 45.0Q415 -10 332 -10ZM302 68Q359 68 392.0 102.0Q425 136 425 200V350Q425 414 392.0 448.0Q359 482 302 482Q247 482 214.5 447.0Q182 412 182 350V200Q182 138 214.5 103.0Q247 68 302 68ZM832.7402597402598 -180 913.7402597402598 34 709.7402597402598 550H809.7402597402598L937.7402597402598 210Q944.7402597402598 193 950.7402597402598 169.5Q956.7402597402598 146 960.7402597402598 130Q964.7402597402598 146 970.7402597402598 169.5Q976.7402597402598 193 982.7402597402598 210L1102.7402597402597 550H1199.7402597402597L928.7402597402598 -180ZM2202.2207792207796 0 2014.2207792207796 730H2107.2207792207796L2231.2207792207796 234Q2244.2207792207796 182 2253.2207792207796 137.5Q2262.2207792207796 93 2266.2207792207796 70Q2270.2207792207796 93 2278.7207792207796 137.5Q2287.2207792207796 182 2300.2207792207796 234L2423.2207792207796 730H2514.2207792207796L2325.2207792207796 0ZM2694.9610389610393 0V730H2812.9610389610393L2888.9610389610393 494Q2899.9610389610393 462 2908.9610389610393 430.5Q2917.9610389610393 399 2921.9610389610393 382Q2926.9610389610393 399 2934.9610389610393 430.5Q2942.9610389610393 462 2952.9610389610393 495L3024.9610389610393 730H3142.9610389610393V0H3054.9610389610393V265Q3054.9610389610393 309 3057.9610389610393 365.0Q3060.9610389610393 421 3065.9610389610393 479.5Q3070.9610389610393 538 3076.4610389610393 591.5Q3081.9610389610393 645 3085.9610389610393 685L2967.9610389610393 320H2872.9610389610393L2753.9610389610393 685Q2758.9610389610393 646 2763.9610389610393 594.5Q2768.9610389610393 543 2772.9610389610393 485.5Q2776.9610389610393 428 2779.9610389610393 371.0Q2782.9610389610393 314 2782.9610389610393 265V0ZM3683.701298701299 0V160H3353.701298701299V301L3642.701298701299 730H3740.701298701299L3443.701298701299 282V242H3683.701298701299V420H3773.701298701299V0ZM3978.4415584415588 0 4168.441558441558 730H4289.441558441558L4478.441558441558 0H4387.441558441558L4339.441558441558 194H4118.441558441558L4070.4415584415588 0ZM4136.441558441558 270H4320.441558441558L4264.441558441558 495Q4248.441558441558 559 4239.441558441558 602.0Q4230.441558441558 645 4228.441558441558 658Q4226.441558441558 645 4217.441558441558 602.0Q4208.441558441558 559 4192.441558441558 496ZM4688.181818181818 0V82H4837.181818181818V648H4688.181818181818V730H5078.181818181818V648H4929.181818181818V82H5078.181818181818V0Z"/></g></svg>
