<svg xmlns="http://www.w3.org/2000/svg" width="1280" height="400" viewBox="0 0 1280 400" role="img" aria-label="AIR by VM4AI — Focused. Fluid. AIR. AI work, carried forward."><style>@font-face{font-family:'Space Grotesk';font-style:normal;font-weight:400;src:url('../tokens/fonts/space-grotesk/space-grotesk-400.woff') format('woff')}@font-face{font-family:'Space Grotesk';font-style:normal;font-weight:500;src:url('../tokens/fonts/space-grotesk/space-grotesk-500.woff') format('woff')}@font-face{font-family:'Space Grotesk';font-style:normal;font-weight:700;src:url('../tokens/fonts/space-grotesk/space-grotesk-700.woff') format('woff')}.sg{font-family:'Space Grotesk',ui-sans-serif,system-ui,sans-serif}</style><defs><pattern id="g" width="28" height="28" patternUnits="userSpaceOnUse"><rect x=".5" y=".5" width="27" height="27" fill="none" stroke="#C9A227" stroke-width="1" opacity=".07"/></pattern></defs><rect width="1280" height="400" rx="26" fill="#1A1613"/><rect width="1280" height="400" rx="26" fill="url(#g)"/><g transform="translate(72 62)"><rect x="0" y="0" width="66" height="66" rx="19" fill="none" stroke="#C9A227" stroke-width="6"/><circle cx="33" cy="33" r="12.5" fill="#FF5A1F"/><text class="sg" x="88" y="49" font-size="50" font-weight="700" fill="#ECE4D8">AIR</text><text class="sg" x="0" y="132" font-size="42" font-weight="500" fill="#ECE4D8">Focused. Fluid. AIR.</text><text class="sg" x="0" y="174" font-size="22" font-weight="400" fill="#9A8F80">AI work, carried forward.</text></g><g transform="translate(760 72)"><rect x="0" y="0" width="136" height="248" rx="22" fill="#221C18" stroke="#3B332D"/><rect x="164" y="0" width="136" height="248" rx="22" fill="#221C18" stroke="#3B332D"/><rect x="328" y="0" width="136" height="248" rx="22" fill="#221C18" stroke="#3B332D"/><text class="sg" x="68" y="44" text-anchor="middle" font-size="22" font-weight="700" fill="#ECE4D8">Focused</text><text class="sg" x="232" y="44" text-anchor="middle" font-size="22" font-weight="700" fill="#ECE4D8">Fluid</text><text class="sg" x="396" y="44" text-anchor="middle" font-size="22" font-weight="700" fill="#ECE4D8">AIR</text><line x1="24" y1="142" x2="112" y2="142" stroke="#C9A227" stroke-width="2" opacity=".7"/><g opacity=".23"><rect x="28" y="126" width="32" height="32" rx="9" fill="none" stroke="#C9A227" stroke-width="4"/><circle cx="44" cy="142" r="6" fill="#FF5A1F"/></g><rect x="72" y="118" width="48" height="48" rx="14" fill="none" stroke="#C9A227" stroke-width="5"/><circle cx="96" cy="142" r="9" fill="#FF5A1F"/><g transform="translate(180 104)"><rect x="0" y="0" width="34" height="60" rx="9" fill="#2A231D" stroke="#C9A227" stroke-width="2" stroke-dasharray="5 4" opacity=".65"/><rect x="42" y="0" width="34" height="60" rx="9" fill="#2A231D" stroke="#C9A227" stroke-width="2"/><rect x="84" y="0" width="34" height="60" rx="9" fill="#2A231D" stroke="#C9A227" stroke-width="2" stroke-dasharray="5 4" opacity=".65"/><circle cx="17" cy="30" r="6" fill="#FF5A1F" opacity=".65"/><circle cx="59" cy="30" r="6" fill="#FF5A1F"/><circle cx="101" cy="30" r="6" fill="#FF5A1F" opacity=".65"/><path d="M59 62v18H17v-10M59 80h42v-10" fill="none" stroke="#C9A227" stroke-width="2" stroke-dasharray="5 4" opacity=".75"/></g><g transform="translate(344 114)"><g opacity=".3"><rect x="0" y="0" width="44" height="44" rx="12" fill="none" stroke="#C9A227" stroke-width="4"/><circle cx="22" cy="22" r="7" fill="#FF5A1F"/></g><path d="M50 22h16m-6-6 6 6-6 6" fill="none" stroke="#C9A227" stroke-width="2.5"/><g opacity=".62"><rect x="72" y="0" width="44" height="44" rx="12" fill="none" stroke="#C9A227" stroke-width="4"/><circle cx="94" cy="22" r="7" fill="#FF5A1F"/></g><path d="M122 22h16m-6-6 6 6-6 6" fill="none" stroke="#C9A227" stroke-width="2.5"/><rect x="144" y="0" width="44" height="44" rx="12" fill="none" stroke="#C9A227" stroke-width="4"/><circle cx="166" cy="22" r="7" fill="#FF5A1F"/></g></g></svg>