<svg xmlns="http://www.w3.org/2000/svg" width="232" height="64" viewBox="0 0 232.41 64" role="img" aria-label="Made with AIR"><rect x="1" y="1" width="230.41" height="62" rx="14" fill="#1A1613" stroke="#C9A227" stroke-width="2"/><rect x="16.00" y="14.00" width="36.00" height="36.00" rx="7.20" fill="none" stroke="#C9A227" stroke-width="2.81"/><circle cx="34.00" cy="32.00" r="4.79" fill="#FF5A1F"/><path d="M73 0V700H276L429 72H445L598 700H801V0H696V624H680L528 0H346L194 624H178V0Z" transform="translate(64.00 39.70) scale(0.02200 -0.02200)" fill="#9A8F80"/><path d="M229 -14Q176 -14 134.5 4.0Q93 22 68.5 57.0Q44 92 44 142Q44 193 68.5 226.5Q93 260 135.5 277.0Q178 294 232 294H382V326Q382 369 356.0 395.0Q330 421 276 421Q223 421 195.0 396.0Q167 371 158 331L62 362Q74 402 100.5 434.5Q127 467 171.0 487.0Q215 507 277 507Q373 507 428.0 458.0Q483 409 483 319V116Q483 86 511 86H553V0H476Q441 0 419.0 18.0Q397 36 397 67V70H382Q374 55 358.0 35.0Q342 15 311.0 0.5Q280 -14 229 -14ZM244 71Q306 71 344.0 106.5Q382 142 382 204V214H238Q197 214 172.0 196.5Q147 179 147 145Q147 111 173.0 91.0Q199 71 244 71Z" transform="translate(83.23 39.70) scale(0.02200 -0.02200)" fill="#9A8F80"/><path d="M280 -14Q219 -14 167.0 16.0Q115 46 83.5 102.5Q52 159 52 239V254Q52 333 83.0 390.0Q114 447 166.0 477.0Q218 507 280 507Q328 507 360.5 495.0Q393 483 414.0 464.5Q435 446 446 426H462V700H565V0H464V70H448Q429 38 390.5 12.0Q352 -14 280 -14ZM309 76Q376 76 419.5 119.0Q463 162 463 242V251Q463 330 420.0 373.0Q377 416 309 416Q243 416 199.5 373.0Q156 330 156 251V242Q156 162 199.5 119.0Q243 76 309 76Z" transform="translate(95.92 39.70) scale(0.02200 -0.02200)" fill="#9A8F80"/><path d="M302 -14Q227 -14 171.0 17.5Q115 49 83.5 106.5Q52 164 52 240V252Q52 329 83.0 386.5Q114 444 169.5 475.5Q225 507 298 507Q369 507 422.5 475.5Q476 444 506.0 388.0Q536 332 536 257V218H157Q159 153 200.5 114.5Q242 76 304 76Q362 76 391.5 102.0Q421 128 437 162L522 118Q508 90 481.5 59.0Q455 28 412.0 7.0Q369 -14 302 -14ZM158 297H431Q427 353 391.0 384.5Q355 416 297 416Q239 416 202.5 384.5Q166 353 158 297Z" transform="translate(110.02 39.70) scale(0.02200 -0.02200)" fill="#9A8F80"/><path d="M130 0 46 493H149L211 69H227L313 493H480L565 69H581L643 493H746L662 0H489L404 423H388L303 0Z" transform="translate(128.48 39.70) scale(0.02200 -0.02200)" fill="#9A8F80"/><path d="M76 0V493H179V0ZM128 560Q98 560 77.5 579.5Q57 599 57 630Q57 661 77.5 680.5Q98 700 128 700Q159 700 179.0 680.5Q199 661 199 630Q199 599 179.0 579.5Q159 560 128 560Z" transform="translate(145.91 39.70) scale(0.02200 -0.02200)" fill="#9A8F80"/><path d="M261 0Q216 0 189.5 27.0Q163 54 163 99V406H27V493H163V656H266V493H413V406H266V117Q266 87 294 87H397V0Z" transform="translate(151.54 39.70) scale(0.02200 -0.02200)" fill="#9A8F80"/><path d="M76 0V700H179V423H195Q205 442 223.5 460.0Q242 478 272.5 489.5Q303 501 350 501Q406 501 449.5 476.0Q493 451 518.0 405.5Q543 360 543 296V0H440V288Q440 352 408.0 382.5Q376 413 320 413Q256 413 217.5 371.0Q179 329 179 249V0Z" transform="translate(161.61 39.70) scale(0.02200 -0.02200)" fill="#9A8F80"/><path d="M18 0 202 700H432L616 0H480L442 154H192L154 0ZM223 276H411L326 617H308Z" transform="translate(180.75 39.70) scale(0.02200 -0.02200)" fill="#ECE4D8"/><path d="M66 0V700H198V0Z" transform="translate(194.70 39.70) scale(0.02200 -0.02200)" fill="#ECE4D8"/><path d="M66 0V700H370Q436 700 485.0 677.0Q534 654 561.0 612.0Q588 570 588 513V501Q588 438 558.0 399.0Q528 360 484 342V324Q524 322 546.0 296.5Q568 271 568 229V0H436V210Q436 234 423.5 249.0Q411 264 382 264H198V0ZM198 384H356Q403 384 429.5 409.5Q456 435 456 477V487Q456 529 430.0 554.5Q404 580 356 580H198Z" transform="translate(200.51 39.70) scale(0.02200 -0.02200)" fill="#ECE4D8"/></svg>