<svg xmlns="http://www.w3.org/2000/svg" width="205" height="112" viewBox="0 0 205.32 112" role="img" aria-label="Made with AIR"><rect x="2" y="2" width="201.32" height="108" rx="20" fill="#1A1613" stroke="#C9A227" stroke-width="3"/><rect x="26.00" y="24.00" width="64" height="64" rx="12.80" fill="none" stroke="#C9A227" stroke-width="4.99"/><circle cx="58.00" cy="56.00" r="8.51" fill="#FF5A1F"/><path d="M76 0V730H194L270 494Q281 462 290.0 430.5Q299 399 303 382Q308 399 316.0 430.5Q324 462 334 495L406 730H524V0H436V265Q436 309 439.0 365.0Q442 421 447.0 479.5Q452 538 457.5 591.5Q463 645 467 685L349 320H254L135 685Q140 646 145.0 594.5Q150 543 154.0 485.5Q158 428 161.0 371.0Q164 314 164 265V0Z" transform="translate(112.00 47.74) scale(0.01300 -0.01300)" fill="#9A8F80"/><path d="M50 0 240 730H361L550 0H459L411 194H190L142 0ZM208 270H392L336 495Q320 559 311.0 602.0Q302 645 300 658Q298 645 289.0 602.0Q280 559 264 496Z" transform="translate(119.44 47.74) scale(0.01300 -0.01300)" fill="#9A8F80"/><path d="M92 0V730H281Q352 730 403.5 703.0Q455 676 483.5 627.0Q512 578 512 511V220Q512 153 483.5 103.5Q455 54 403.5 27.0Q352 0 281 0ZM182 80H281Q347 80 384.5 117.0Q422 154 422 220V511Q422 576 384.5 613.0Q347 650 281 650H182Z" transform="translate(126.88 47.74) scale(0.01300 -0.01300)" fill="#9A8F80"/><path d="M100 0V730H520V648H189V422H485V341H189V82H520V0Z" transform="translate(134.32 47.74) scale(0.01300 -0.01300)" fill="#9A8F80"/><path d="M109 0 25 730H111L166 190Q168 168 170.0 144.5Q172 121 173.5 100.0Q175 79 175 65Q177 79 178.5 100.0Q180 121 182.5 144.5Q185 168 188 190L256 730H349L411 190Q414 168 416.5 144.5Q419 121 421.5 100.0Q424 79 425 65Q426 79 427.5 100.0Q429 121 431.5 144.5Q434 168 436 190L493 730H575L489 0H376L314 550Q312 573 309.5 595.0Q307 617 305.0 636.0Q303 655 302 667Q301 655 298.5 636.0Q296 617 294.0 595.0Q292 573 289 550L222 0Z" transform="translate(149.20 47.74) scale(0.01300 -0.01300)" fill="#9A8F80"/><path d="M105 0V82H254V648H105V730H495V648H346V82H495V0Z" transform="translate(156.64 47.74) scale(0.01300 -0.01300)" fill="#9A8F80"/><path d="M255 0V649H55V731H545V649H345V0Z" transform="translate(164.08 47.74) scale(0.01300 -0.01300)" fill="#9A8F80"/><path d="M93 0V730H183V418H417V730H507V0H417V336H183V0Z" transform="translate(171.52 47.74) scale(0.01300 -0.01300)" fill="#9A8F80"/><path d="M18 0 202 700H432L616 0H480L442 154H192L154 0ZM223 276H411L326 617H308Z" transform="translate(112.00 99.40) scale(0.04400 -0.04400)" fill="#ECE4D8"/><path d="M66 0V700H198V0Z" transform="translate(139.90 99.40) scale(0.04400 -0.04400)" fill="#ECE4D8"/><path d="M66 0V700H370Q436 700 485.0 677.0Q534 654 561.0 612.0Q588 570 588 513V501Q588 438 558.0 399.0Q528 360 484 342V324Q524 322 546.0 296.5Q568 271 568 229V0H436V210Q436 234 423.5 249.0Q411 264 382 264H198V0ZM198 384H356Q403 384 429.5 409.5Q456 435 456 477V487Q456 529 430.0 554.5Q404 580 356 580H198Z" transform="translate(151.51 99.40) scale(0.04400 -0.04400)" fill="#ECE4D8"/></svg>