<svg xmlns="http://www.w3.org/2000/svg" viewBox="0 0 720 390" width="720" height="390"><style>@import url("https://fonts.googleapis.com/css2?family=Space+Grotesk:wght@400;500;700&family=JetBrains+Mono&display=swap");.d-frame{fill:none;stroke:#C9A227}.d-surface{fill:#2A231D;stroke:#4C453E}.d-txt{fill:#ECE4D8;font-family:'Space Grotesk',system-ui,sans-serif;font-weight:500}.d-txt.sm{fill:#9A8F80;font-family:'JetBrains Mono',monospace;font-weight:400}.d-txt.cap{fill:#C9A227;font-family:'JetBrains Mono',monospace;text-transform:uppercase}</style><rect width="720" height="390" fill="#1A1613"/><rect class="d-surface" x="275" y="18" width="170" height="42" rx="10" stroke-width="1.5"/><text class="d-txt" x="360.0" y="39.0" text-anchor="middle" dominant-baseline="central" font-size="14">Start AIR project</text><rect class="d-frame" x="250" y="100" width="220" height="58" rx="10" stroke-width="2"/><text class="d-txt" x="360.0" y="120.0" text-anchor="middle" dominant-baseline="central" font-size="14">Q1 — what are you doing?</text><text class="d-txt sm" x="360.0" y="139.0" text-anchor="middle" dominant-baseline="central" font-size="10.5">branch selector · never inferred</text><rect class="d-surface" x="28" y="110" width="176" height="48" rx="10" stroke-width="1.5"/><text class="d-txt" x="116.0" y="125.0" text-anchor="middle" dominant-baseline="central" font-size="13">C — continue</text><text class="d-txt sm" x="116.0" y="144.0" text-anchor="middle" dominant-baseline="central" font-size="10">restore from card</text><rect class="d-surface" x="516" y="110" width="176" height="48" rx="10" stroke-width="1.5"/><text class="d-txt" x="604.0" y="125.0" text-anchor="middle" dominant-baseline="central" font-size="13">D — explain first</text><text class="d-txt sm" x="604.0" y="144.0" text-anchor="middle" dominant-baseline="central" font-size="10">orientation → Q1</text><rect class="d-frame" x="250" y="207" width="220" height="54" rx="10" stroke-width="2"/><text class="d-txt" x="360.0" y="225.0" text-anchor="middle" dominant-baseline="central" font-size="14">Q2–Q6 questions</text><text class="d-txt sm" x="360.0" y="244.0" text-anchor="middle" dominant-baseline="central" font-size="10.5">deterministic · asked in order</text><rect x="250" y="302" width="220" height="56" rx="10" fill="#4C2C1D" stroke="#FF5A1F" stroke-width="2"/><text class="d-txt" x="360.0" y="321.0" text-anchor="middle" dominant-baseline="central" font-size="14">Activate project</text><text class="d-txt sm" x="360.0" y="340.0" text-anchor="middle" dominant-baseline="central" font-size="10.5">init brief + execution map</text><polyline points="360,60 360,98" fill="none" stroke="#9A8F80" stroke-width="2"/><path d="M355.0 89.0 L360.0 98.0 L365.0 89.0 Z" fill="#9A8F80"/><polyline points="250,129 206,129" fill="none" stroke="#9A8F80" stroke-width="2"/><path d="M215.0 124.0 L206.0 129.0 L215.0 134.0 Z" fill="#9A8F80"/><polyline points="470,129 514,129" fill="none" stroke="#9A8F80" stroke-width="2"/><path d="M505.0 134.0 L514.0 129.0 L505.0 124.0 Z" fill="#9A8F80"/><polyline points="360,158 360,205" fill="none" stroke="#9A8F80" stroke-width="2"/><path d="M355.0 196.0 L360.0 205.0 L365.0 196.0 Z" fill="#9A8F80"/><polyline points="360,261 360,300" fill="none" stroke="#9A8F80" stroke-width="2"/><path d="M355.0 291.0 L360.0 300.0 L365.0 291.0 Z" fill="#9A8F80"/><text class="d-txt sm" x="378" y="181" text-anchor="start" dominant-baseline="central" font-size="11">A / B</text></svg>