<svg xmlns="http://www.w3.org/2000/svg" viewBox="0 0 720 520" width="720" height="520"><style>@import url("https://fonts.googleapis.com/css2?family=Space+Grotesk:wght@400;500;700&family=JetBrains+Mono&display=swap");.d-frame{fill:none;stroke:#C9A227}.d-surface{fill:#2A231D;stroke:#4C453E}.d-txt{fill:#ECE4D8;font-family:'Space Grotesk',system-ui,sans-serif;font-weight:500}.d-txt.sm{fill:#9A8F80;font-family:'JetBrains Mono',monospace;font-weight:400}.d-txt.cap{fill:#C9A227;font-family:'JetBrains Mono',monospace;text-transform:uppercase}</style><rect width="720" height="520" fill="#1A1613"/><text class="d-txt" x="180" y="22" text-anchor="middle" dominant-baseline="central" font-size="15">Vibe coding</text><text class="d-txt" x="540" y="22" text-anchor="middle" dominant-baseline="central" font-size="15">AIR execution</text><rect class="d-surface" x="60" y="44" width="240" height="48" rx="10" stroke-width="1.5"/><text class="d-txt" x="180.0" y="68.0" text-anchor="middle" dominant-baseline="central" font-size="14">Request</text><rect class="d-surface" x="60" y="110" width="240" height="48" rx="10" stroke-width="1.5"/><text class="d-txt" x="180.0" y="134.0" text-anchor="middle" dominant-baseline="central" font-size="14">Generate output</text><rect class="d-surface" x="60" y="176" width="240" height="48" rx="10" stroke-width="1.5"/><text class="d-txt" x="180.0" y="200.0" text-anchor="middle" dominant-baseline="central" font-size="14">Clean up the slop</text><rect class="d-surface" x="60" y="242" width="240" height="54" rx="10" stroke-width="1.5"/><text class="d-txt" x="180.0" y="260.0" text-anchor="middle" dominant-baseline="central" font-size="14">Ship</text><text class="d-txt sm" x="180.0" y="279.0" text-anchor="middle" dominant-baseline="central" font-size="10">review often skipped</text><polyline points="180,92 180,108" fill="none" stroke="#9A8F80" stroke-width="2"/><path d="M175.0 99.0 L180.0 108.0 L185.0 99.0 Z" fill="#9A8F80"/><polyline points="180,158 180,174" fill="none" stroke="#9A8F80" stroke-width="2"/><path d="M175.0 165.0 L180.0 174.0 L185.0 165.0 Z" fill="#9A8F80"/><polyline points="180,224 180,240" fill="none" stroke="#9A8F80" stroke-width="2"/><path d="M175.0 231.0 L180.0 240.0 L185.0 231.0 Z" fill="#9A8F80"/><rect class="d-frame" x="420" y="44" width="240" height="46" rx="10" stroke-width="2"/><text class="d-txt" x="540.0" y="67.0" text-anchor="middle" dominant-baseline="central" font-size="14">Request</text><rect class="d-frame" x="420" y="104" width="240" height="52" rx="10" stroke-width="2"/><text class="d-txt" x="540.0" y="121.0" text-anchor="middle" dominant-baseline="central" font-size="14">Bind contract</text><text class="d-txt sm" x="540.0" y="140.0" text-anchor="middle" dominant-baseline="central" font-size="10">task-operation scope</text><polyline points="540,90 540,102" fill="none" stroke="#9A8F80" stroke-width="2"/><path d="M535.0 93.0 L540.0 102.0 L545.0 93.0 Z" fill="#9A8F80"/><rect class="d-frame" x="420" y="170" width="240" height="52" rx="10" stroke-width="2"/><text class="d-txt" x="540.0" y="187.0" text-anchor="middle" dominant-baseline="central" font-size="14">Surface blockers</text><text class="d-txt sm" x="540.0" y="206.0" text-anchor="middle" dominant-baseline="central" font-size="10">missing vectors · readiness</text><polyline points="540,156 540,168" fill="none" stroke="#9A8F80" stroke-width="2"/><path d="M535.0 159.0 L540.0 168.0 L545.0 159.0 Z" fill="#9A8F80"/><rect class="d-frame" x="420" y="236" width="240" height="52" rx="10" stroke-width="2"/><text class="d-txt" x="540.0" y="253.0" text-anchor="middle" dominant-baseline="central" font-size="14">Infer benchmark</text><text class="d-txt sm" x="540.0" y="272.0" text-anchor="middle" dominant-baseline="central" font-size="10">task-fitted standard</text><polyline points="540,222 540,234" fill="none" stroke="#9A8F80" stroke-width="2"/><path d="M535.0 225.0 L540.0 234.0 L545.0 225.0 Z" fill="#9A8F80"/><rect class="d-frame" x="420" y="302" width="240" height="52" rx="10" stroke-width="2"/><text class="d-txt" x="540.0" y="319.0" text-anchor="middle" dominant-baseline="central" font-size="14">Generate</text><text class="d-txt sm" x="540.0" y="338.0" text-anchor="middle" dominant-baseline="central" font-size="10">under the contract</text><polyline points="540,288 540,300" fill="none" stroke="#9A8F80" stroke-width="2"/><path d="M535.0 291.0 L540.0 300.0 L545.0 291.0 Z" fill="#9A8F80"/><rect class="d-frame" x="420" y="368" width="240" height="52" rx="10" stroke-width="2"/><text class="d-txt" x="540.0" y="385.0" text-anchor="middle" dominant-baseline="central" font-size="14">Decision posture</text><text class="d-txt sm" x="540.0" y="404.0" text-anchor="middle" dominant-baseline="central" font-size="10">approve · review · reject</text><polyline points="540,354 540,366" fill="none" stroke="#9A8F80" stroke-width="2"/><path d="M535.0 357.0 L540.0 366.0 L545.0 357.0 Z" fill="#9A8F80"/><rect x="420" y="434" width="240" height="52" rx="10" fill="#4C2C1D" stroke="#FF5A1F" stroke-width="2"/><text class="d-txt" x="540.0" y="451.0" text-anchor="middle" dominant-baseline="central" font-size="14">Deliver</text><text class="d-txt sm" x="540.0" y="470.0" text-anchor="middle" dominant-baseline="central" font-size="10">only when state allows</text><polyline points="540,420 540,432" fill="none" stroke="#9A8F80" stroke-width="2"/><path d="M535.0 423.0 L540.0 432.0 L545.0 423.0 Z" fill="#9A8F80"/></svg>