<svg xmlns="http://www.w3.org/2000/svg" viewBox="0 0 720 335" width="720" height="335"><style>@import url("https://fonts.googleapis.com/css2?family=Space+Grotesk:wght@400;500;700&family=JetBrains+Mono&display=swap");.d-frame{fill:none;stroke:#C9A227}.d-surface{fill:#2A231D;stroke:#4C453E}.d-txt{fill:#ECE4D8;font-family:'Space Grotesk',system-ui,sans-serif;font-weight:500}.d-txt.sm{fill:#9A8F80;font-family:'JetBrains Mono',monospace;font-weight:400}.d-txt.cap{fill:#C9A227;font-family:'JetBrains Mono',monospace;text-transform:uppercase}</style><rect width="720" height="335" fill="#1A1613"/><rect class="d-frame" x="50" y="20" width="260" height="58" rx="10" stroke-width="2"/><text class="d-txt" x="180.0" y="40.0" text-anchor="middle" dominant-baseline="central" font-family="var(--font-mono)" font-size="13">AIR_ARTIFACT.method</text><text class="d-txt sm" x="180.0" y="59.0" text-anchor="middle" dominant-baseline="central" font-size="10.5">the procedure</text><rect class="d-frame" x="410" y="20" width="260" height="58" rx="10" stroke-width="2"/><text class="d-txt" x="540.0" y="40.0" text-anchor="middle" dominant-baseline="central" font-family="var(--font-mono)" font-size="12">.method_execution_state</text><text class="d-txt sm" x="540.0" y="59.0" text-anchor="middle" dominant-baseline="central" font-size="10.5">live progress + gates</text><rect class="d-surface" x="50" y="150" width="260" height="58" rx="10" stroke-width="1.5"/><text class="d-txt" x="180.0" y="170.0" text-anchor="middle" dominant-baseline="central" font-family="var(--font-mono)" font-size="13">AIR_GATE</text><text class="d-txt sm" x="180.0" y="189.0" text-anchor="middle" dominant-baseline="central" font-size="10.5">execution · closure · rescope</text><rect class="d-surface" x="410" y="150" width="260" height="58" rx="10" stroke-width="1.5"/><text class="d-txt" x="540.0" y="170.0" text-anchor="middle" dominant-baseline="central" font-size="13">Method-step gate</text><text class="d-txt sm" x="540.0" y="189.0" text-anchor="middle" dominant-baseline="central" font-size="10.5">advance within method</text><rect x="210" y="255" width="300" height="58" rx="10" fill="#4C2C1D" stroke="#FF5A1F" stroke-width="2"/><text class="d-txt" x="360.0" y="275.0" text-anchor="middle" dominant-baseline="central" font-size="14">Stricter gate governs</text><text class="d-txt sm" x="360.0" y="294.0" text-anchor="middle" dominant-baseline="central" font-size="11">on conflict</text><polyline points="310,49 408,49" fill="none" stroke="#9A8F80" stroke-width="2"/><path d="M399.0 54.0 L408.0 49.0 L399.0 44.0 Z" fill="#9A8F80"/><polyline points="540,78 540,148" fill="none" stroke="#9A8F80" stroke-width="2"/><path d="M535.0 139.0 L540.0 148.0 L545.0 139.0 Z" fill="#9A8F80"/><polyline points="180,208 330,253" fill="none" stroke="#9A8F80" stroke-width="2"/><path d="M319.9 255.2 L330.0 253.0 L322.8 245.6 Z" fill="#9A8F80"/><polyline points="540,208 390,253" fill="none" stroke="#9A8F80" stroke-width="2"/><path d="M397.2 245.6 L390.0 253.0 L400.1 255.2 Z" fill="#9A8F80"/><text class="d-txt sm" x="359" y="38" text-anchor="middle" dominant-baseline="central" font-size="10">tracked as</text></svg>