<svg xmlns="http://www.w3.org/2000/svg" viewBox="0 0 720 210" width="720" height="210"><style>@import url("https://fonts.googleapis.com/css2?family=Space+Grotesk:wght@400;500;700&family=JetBrains+Mono&display=swap");.d-frame{fill:none;stroke:#C9A227}.d-surface{fill:#2A231D;stroke:#4C453E}.d-txt{fill:#ECE4D8;font-family:'Space Grotesk',system-ui,sans-serif;font-weight:500}.d-txt.sm{fill:#9A8F80;font-family:'JetBrains Mono',monospace;font-weight:400}.d-txt.cap{fill:#C9A227;font-family:'JetBrains Mono',monospace;text-transform:uppercase}</style><rect width="720" height="210" fill="#1A1613"/><rect class="d-frame" x="40" y="20" width="290" height="64" rx="10" stroke-width="2"/><text class="d-txt" x="185.0" y="43.0" text-anchor="middle" dominant-baseline="central" font-size="15">Q5 — the project</text><text class="d-txt sm" x="185.0" y="62.0" text-anchor="middle" dominant-baseline="central" font-size="11">what you're building</text><rect class="d-surface" x="40" y="122" width="290" height="64" rx="10" stroke-width="1.5"/><text class="d-txt" x="185.0" y="145.0" text-anchor="middle" dominant-baseline="central" font-size="15">Scope</text><text class="d-txt sm" x="185.0" y="164.0" text-anchor="middle" dominant-baseline="central" font-size="11">goal · constraints · sources</text><rect class="d-frame" x="390" y="20" width="290" height="64" rx="10" stroke-width="2"/><text class="d-txt" x="535.0" y="43.0" text-anchor="middle" dominant-baseline="central" font-size="15">Q6 — working agreement</text><text class="d-txt sm" x="535.0" y="62.0" text-anchor="middle" dominant-baseline="central" font-size="11">how AIR works with you</text><rect class="d-surface" x="390" y="122" width="290" height="64" rx="10" stroke-width="1.5"/><text class="d-txt" x="535.0" y="145.0" text-anchor="middle" dominant-baseline="central" font-size="15">Delivery mode</text><text class="d-txt sm" x="535.0" y="164.0" text-anchor="middle" dominant-baseline="central" font-size="11">files · diffs · review · steps</text><polyline points="185,84 185,120" fill="none" stroke="#9A8F80" stroke-width="2"/><path d="M180.0 111.0 L185.0 120.0 L190.0 111.0 Z" fill="#9A8F80"/><polyline points="535,84 535,120" fill="none" stroke="#9A8F80" stroke-width="2"/><path d="M530.0 111.0 L535.0 120.0 L540.0 111.0 Z" fill="#9A8F80"/></svg>