<svg xmlns="http://www.w3.org/2000/svg" viewBox="0 0 720 300" width="720" height="300"><style>@import url("https://fonts.googleapis.com/css2?family=Space+Grotesk:wght@400;500;700&family=JetBrains+Mono&display=swap");.d-frame{fill:none;stroke:#C9A227}.d-surface{fill:#2A231D;stroke:#4C453E}.d-txt{fill:#ECE4D8;font-family:'Space Grotesk',system-ui,sans-serif;font-weight:500}.d-txt.sm{fill:#9A8F80;font-family:'JetBrains Mono',monospace;font-weight:400}.d-txt.cap{fill:#C9A227;font-family:'JetBrains Mono',monospace;text-transform:uppercase}</style><rect width="720" height="300" fill="#1A1613"/><rect class="d-surface" x="40" y="30" width="210" height="58" rx="10" stroke-width="1.5"/><text class="d-txt" x="145.0" y="50.0" text-anchor="middle" dominant-baseline="central" font-size="14">New project</text><text class="d-txt sm" x="145.0" y="69.0" text-anchor="middle" dominant-baseline="central" font-size="10.5">boot bundle · 3 files</text><rect class="d-surface" x="40" y="132" width="210" height="58" rx="10" stroke-width="1.5"/><text class="d-txt" x="145.0" y="152.0" text-anchor="middle" dominant-baseline="central" font-size="14">Continue project</text><text class="d-txt sm" x="145.0" y="171.0" text-anchor="middle" dominant-baseline="central" font-size="10.5">card + core runtime</text><rect x="300" y="82" width="180" height="64" rx="10" fill="#4C2C1D" stroke="#FF5A1F" stroke-width="2"/><text class="d-txt" x="390.0" y="105.0" text-anchor="middle" dominant-baseline="central" font-size="14">AIR session</text><text class="d-txt sm" x="390.0" y="124.0" text-anchor="middle" dominant-baseline="central" font-size="11">active project</text><rect class="d-frame" x="525" y="84" width="160" height="60" rx="10" stroke-width="2"/><text class="d-txt" x="605.0" y="105.0" text-anchor="middle" dominant-baseline="central" font-size="13">Handoff card</text><text class="d-txt sm" x="605.0" y="124.0" text-anchor="middle" dominant-baseline="central" font-size="10.5">strict JSON</text><polyline points="250,59 298,102" fill="none" stroke="#9A8F80" stroke-width="2"/><path d="M288.0 99.7 L298.0 102.0 L294.6 92.3 Z" fill="#9A8F80"/><polyline points="250,161 298,126" fill="none" stroke="#9A8F80" stroke-width="2"/><path d="M293.7 135.3 L298.0 126.0 L287.8 127.3 Z" fill="#9A8F80"/><polyline points="480,114 523,114" fill="none" stroke="#9A8F80" stroke-width="2"/><path d="M514.0 119.0 L523.0 114.0 L514.0 109.0 Z" fill="#9A8F80"/><polyline points="605,144 605,258 145,258 145,190" fill="none" stroke="#9A8F80" stroke-width="2"/><path d="M150.0 199.0 L145.0 190.0 L140.0 199.0 Z" fill="#9A8F80"/><text class="d-txt sm" x="375" y="248" text-anchor="middle" dominant-baseline="central" font-size="11">next session</text></svg>